<?xml version="1.0" standalone="no"?>
<!DOCTYPE svg PUBLIC "-//W3C//DTD SVG 20010904//EN"
 "http://www.w3.org/TR/2001/REC-SVG-20010904/DTD/svg10.dtd">
<svg version="1.0" xmlns="http://www.w3.org/2000/svg"
 width="260.000000pt" height="260.000000pt" viewBox="0 0 260.000000 260.000000"
 preserveAspectRatio="xMidYMid meet">
<metadata>
Created by potrace 1.14, written by Peter Selinger 2001-2017
</metadata>
<g transform="translate(0.000000,260.000000) scale(0.100000,-0.100000)"
fill="#000000" stroke="none">
<path d="M920 1952 c0 -5 -10 -8 -22 -7 -32 3 -49 -5 -41 -19 4 -7 1 -7 -7 1
-11 10 -16 9 -26 -5 -9 -12 -13 -13 -14 -4 0 10 -4 9 -16 -2 -8 -9 -20 -14
-25 -11 -5 4 -9 -1 -9 -11 0 -14 -3 -14 -15 -4 -13 11 -14 10 -9 -4 4 -9 3
-16 -2 -15 -13 3 -44 -12 -40 -20 2 -3 -8 -15 -22 -25 -25 -19 -25 -19 -20 2
3 11 -1 31 -10 43 -8 12 -10 19 -4 15 6 -4 10 1 9 13 -1 13 -7 18 -19 16 -10
-2 -18 1 -18 6 0 6 -5 7 -11 4 -16 -10 -69 -12 -69 -3 0 4 -5 8 -11 8 -5 0 -8
-4 -5 -8 6 -10 -45 -9 -61 1 -7 5 -13 4 -13 -1 0 -5 -7 -9 -15 -9 -8 0 -15 3
-15 7 0 4 -7 7 -15 7 -8 0 -15 -4 -15 -8 0 -9 -20 -6 -37 4 -7 5 -13 4 -13 -1
0 -12 -33 -10 -41 1 -4 5 -15 3 -26 -3 -19 -12 -20 -26 -19 -641 1 -345 4
-630 8 -634 4 -5 317 -7 384 -2 5 0 11 18 11 39 0 25 -3 36 -11 31 -6 -4 -5 1
3 11 12 14 12 19 2 26 -11 6 -11 9 0 12 12 5 12 9 1 28 -8 12 -9 19 -3 15 7
-4 10 2 7 17 -2 13 1 29 7 36 6 7 6 12 1 11 -23 -4 -26 2 -8 17 10 8 13 12 5
8 -10 -5 -11 -1 -6 16 6 17 4 21 -6 14 -11 -6 -12 -5 -3 7 15 20 15 59 1 59
-7 0 -6 4 3 10 13 8 13 13 2 31 -8 12 -9 18 -2 14 7 -4 9 3 5 25 -3 17 -2 29
3 26 10 -6 9 30 -1 40 -4 4 -2 13 5 21 9 11 7 12 -8 7 -18 -7 -18 -6 1 16 11
13 14 20 8 16 -7 -4 -13 -3 -13 1 0 5 6 15 13 22 6 7 8 12 2 11 -24 -5 -27 1
-9 16 10 8 13 12 5 8 -10 -5 -11 -1 -6 16 6 17 4 21 -6 14 -12 -7 -12 -5 -1 9
8 9 11 21 7 27 -3 5 -2 10 2 10 5 0 8 14 7 30 -1 17 3 33 8 36 6 4 5 10 -3 15
-11 7 -10 9 3 9 11 0 15 5 12 14 -3 8 0 17 5 21 6 3 9 11 6 16 -4 5 -1 9 5 9
6 0 8 5 4 12 -5 8 -2 9 10 5 10 -4 15 -3 11 3 -8 13 48 67 64 62 6 -2 11 2 11
9 0 7 3 9 7 6 3 -4 13 -1 21 6 13 10 14 9 7 -2 -6 -11 -5 -12 6 -5 18 11 120
13 113 2 -3 -4 1 -8 9 -8 17 0 77 -30 62 -30 -5 0 -2 -5 8 -11 9 -6 15 -14 12
-20 -4 -5 2 -6 11 -2 10 4 15 2 11 -4 -3 -5 3 -24 14 -42 11 -18 14 -29 7 -25
-10 6 -10 4 0 -9 8 -9 11 -21 7 -27 -3 -5 0 -10 7 -10 9 0 9 -3 -2 -10 -8 -5
-10 -10 -5 -10 11 0 12 -56 2 -66 -3 -3 -3 -12 -1 -18 8 -22 10 -97 3 -102 -4
-2 -4 -18 1 -34 5 -19 5 -30 -1 -30 -6 0 -7 -5 -4 -11 11 -16 12 -69 2 -69 -4
0 -5 -5 -1 -12 4 -6 7 -94 6 -194 -1 -113 3 -186 9 -189 5 -4 94 -6 197 -5
194 1 211 5 190 43 -7 14 -7 17 1 13 6 -4 11 -3 11 3 0 5 -6 12 -12 14 -10 4
-10 6 0 6 6 1 12 6 12 12 0 5 -4 8 -8 5 -5 -3 -9 1 -9 9 0 8 4 12 9 9 11 -7
10 3 -3 28 -8 15 -8 19 0 14 15 -10 14 7 -1 22 -9 9 -9 12 1 12 11 0 11 3 0
17 -10 11 -10 14 -1 9 15 -9 16 6 0 22 -9 9 -9 12 -1 12 8 0 9 9 3 30 -7 24
-6 30 6 30 8 0 12 5 9 10 -4 6 -10 8 -13 6 -9 -6 -8 36 1 51 4 6 1 14 -5 16
-7 3 -4 6 7 6 16 1 17 3 6 10 -8 5 -15 23 -16 40 -1 16 2 28 7 25 4 -3 8 2 8
11 0 9 -4 14 -8 11 -4 -2 -8 4 -9 14 -1 11 3 23 9 26 6 4 5 10 -3 15 -11 7 -9
9 6 9 18 1 18 2 3 10 -10 6 -15 19 -13 33 3 12 6 44 7 70 2 26 6 47 9 47 3 0
5 11 4 25 -2 18 2 25 13 25 14 0 14 2 3 9 -8 5 -9 11 -3 15 6 4 9 15 7 26 -2
11 1 23 7 26 7 5 8 2 4 -7 -4 -8 1 -3 12 11 11 13 18 28 15 32 -2 5 0 7 6 6 5
-2 17 6 26 17 9 11 14 13 10 5 -4 -8 1 -6 9 4 9 11 16 16 16 11 0 -4 9 0 20
10 15 14 20 15 20 4 0 -8 3 -10 8 -4 9 13 102 17 102 5 0 -5 6 -7 14 -4 8 3
17 0 21 -5 3 -6 10 -9 15 -6 5 3 12 -4 15 -16 4 -12 10 -17 14 -12 3 6 14 2
26 -10 11 -11 13 -16 5 -12 -11 6 -10 3 3 -12 9 -11 17 -25 17 -31 0 -7 5 -12
10 -12 6 0 10 -11 10 -24 0 -14 5 -28 10 -31 6 -4 7 -11 4 -17 -11 -17 -10
-52 1 -60 6 -5 4 -8 -5 -8 -13 0 -13 -1 0 -10 13 -9 13 -10 0 -10 -13 0 -13
-1 0 -10 9 -6 11 -13 5 -17 -13 -11 -14 -76 -1 -85 7 -5 5 -8 -4 -8 -13 0 -13
-1 0 -10 9 -6 11 -13 5 -17 -13 -11 -14 -76 -1 -85 7 -5 5 -8 -4 -8 -13 0 -13
-1 0 -10 9 -6 11 -13 5 -17 -13 -11 -14 -76 -1 -85 7 -5 5 -8 -4 -8 -13 0 -13
-1 0 -10 9 -6 11 -13 5 -17 -13 -11 -14 -76 -1 -85 7 -5 5 -8 -4 -8 -13 0 -13
-1 0 -10 9 -6 11 -13 5 -17 -13 -11 -14 -76 -1 -85 7 -5 5 -8 -4 -8 -13 0 -13
-1 0 -10 13 -9 13 -10 0 -10 -13 0 -13 -1 0 -10 13 -9 13 -10 0 -10 -13 0 -13
-1 0 -10 8 -5 103 -10 215 -10 124 0 195 4 186 9 -12 8 -12 12 -2 24 8 10 9
17 1 22 -5 3 -10 11 -10 16 0 6 5 7 10 4 6 -3 10 -1 10 4 0 6 -5 11 -11 11 -7
0 -8 7 -4 18 15 33 13 97 -3 115 -14 15 -14 17 -1 12 11 -4 15 2 14 24 0 17
-4 33 -8 37 -11 11 -8 26 3 19 6 -3 10 -2 10 4 0 5 -6 11 -12 14 -10 3 -10 7
0 19 9 11 10 18 2 23 -5 3 -10 11 -10 16 0 6 5 7 10 4 6 -3 10 -1 10 4 0 6 -5
11 -11 11 -7 0 -8 7 -4 18 15 33 13 97 -3 115 -14 15 -14 17 -1 12 11 -4 15 2
14 24 0 17 -4 33 -8 37 -11 11 -8 26 3 19 6 -3 10 -2 10 4 0 5 -6 11 -12 14
-10 3 -10 7 0 19 9 11 10 18 2 23 -5 3 -10 11 -10 16 0 6 5 7 10 4 6 -3 10 -2
10 4 0 5 -5 11 -11 13 -7 2 -7 12 0 29 7 21 6 30 -7 43 -16 16 -16 17 2 10 16
-6 17 -5 6 16 -10 18 -9 24 1 31 10 6 11 9 2 9 -7 0 -13 12 -13 28 0 15 -6 34
-12 41 -11 11 -10 12 2 6 12 -6 13 -5 3 6 -7 7 -13 26 -13 42 0 19 -4 26 -11
21 -8 -5 -10 1 -7 19 3 16 1 25 -6 24 -6 -1 -10 6 -10 16 1 9 -5 17 -13 17 -9
0 -13 6 -9 15 3 9 -4 21 -19 31 -14 9 -22 20 -19 25 3 5 -2 9 -10 9 -9 0 -16
5 -16 11 0 5 -4 7 -10 4 -6 -3 -7 1 -4 9 4 11 0 16 -10 16 -9 0 -27 10 -40 23
-13 13 -31 22 -40 21 -9 -1 -14 1 -12 4 5 9 -20 32 -28 25 -3 -3 -17 2 -30 11
-15 10 -27 12 -31 6 -4 -6 -12 -4 -22 5 -11 12 -19 13 -28 5 -8 -7 -15 -7 -19
-1 -7 11 -141 10 -152 -2 -12 -12 -26 -8 -18 6 6 9 5 9 -7 0 -9 -7 -26 -14
-38 -16 -13 -2 -27 -10 -32 -18 -7 -11 -9 -12 -9 0 0 10 -3 11 -13 2 -8 -6
-17 -8 -20 -4 -4 3 -7 1 -7 -6 0 -13 -58 -38 -75 -32 -5 1 -7 0 -3 -4 11 -11
-20 -37 -33 -29 -7 4 -10 3 -7 -2 7 -11 -17 -35 -27 -26 -4 4 -5 0 -3 -8 2 -8
-3 -14 -10 -12 -8 1 -11 -2 -7 -7 3 -6 -4 -15 -15 -21 -11 -6 -18 -16 -14 -21
4 -7 -1 -7 -15 0 -22 12 -30 27 -8 16 6 -4 4 0 -5 8 -10 8 -15 17 -12 20 3 3
-6 13 -20 22 -14 10 -23 22 -19 28 3 6 1 7 -5 3 -7 -4 -12 -2 -12 5 0 7 -3 9
-6 6 -4 -4 -15 3 -25 14 -10 12 -23 18 -30 13 -8 -4 -9 -3 -5 4 5 8 0 12 -13
12 -13 0 -21 7 -21 18 0 13 -2 14 -9 4 -6 -10 -10 -10 -20 2 -7 8 -20 15 -29
15 -23 0 -44 5 -61 15 -10 6 -12 5 -7 -2 4 -7 2 -12 -3 -12 -6 0 -11 4 -11 9
0 11 -131 9 -149 -3 -10 -6 -12 -6 -7 2 4 7 2 12 -3 12 -6 0 -11 -4 -11 -8z
m1417 -847 c0 -8 -4 -12 -9 -9 -5 3 -6 10 -3 15 9 13 12 11 12 -6z m0 -320 c0
-8 -4 -12 -9 -9 -5 3 -6 10 -3 15 9 13 12 11 12 -6z"/>
</g>
</svg>
